<svg width="158" height="44" viewBox="0 0 158 44" fill="none" xmlns="http://www.w3.org/2000/svg">
<path d="M37.7061 40.9721C37.7061 40.9721 34.1435 31.6535 37.7061 28.1157C41.2439 24.6025 50.4731 28.1157 50.4731 28.1157L50.4731 15.795C43.42 15.795 37.7061 10.0811 37.7061 3.02795L25.3854 3.02795C25.3854 3.02795 28.9109 12.2695 25.3854 15.795C21.8599 19.3206 12.6183 15.795 12.6183 15.795L12.6183 28.1157C19.6715 28.1157 25.3854 33.9189 25.3854 40.9721L37.7061 40.9721Z" fill="white"/>
<path d="M73.8735 23.1574H68.1127L68.0819 19.9843H72.9185C73.7708 19.9843 74.4691 19.8765 75.0134 19.6608C75.5576 19.4349 75.9632 19.1115 76.2302 18.6904C76.5075 18.2592 76.6461 17.7354 76.6461 17.1193C76.6461 16.421 76.5126 15.8563 76.2456 15.425C75.9889 14.9937 75.5833 14.6805 75.0288 14.4854C74.4845 14.2903 73.7811 14.1927 72.9185 14.1927H69.7147V33H65.0937V10.573H72.9185C74.2227 10.573 75.3882 10.6962 76.4151 10.9426C77.4522 11.1891 78.3302 11.5639 79.049 12.0671C79.7678 12.5702 80.3172 13.2069 80.6971 13.9771C81.0771 14.737 81.2671 15.6406 81.2671 16.688C81.2671 17.6122 81.0566 18.4645 80.6355 19.245C80.2248 20.0254 79.5727 20.6621 78.6793 21.155C77.7962 21.6479 76.641 21.92 75.2136 21.9713L73.8735 23.1574ZM73.6733 33H66.8497L68.6519 29.3957H73.6733C74.4845 29.3957 75.1469 29.2673 75.6603 29.0106C76.1737 28.7436 76.5537 28.3842 76.8001 27.9324C77.0466 27.4805 77.1698 26.962 77.1698 26.3766C77.1698 25.7194 77.0569 25.1495 76.8309 24.6669C76.6153 24.1842 76.2662 23.8146 75.7835 23.5579C75.3009 23.2909 74.6642 23.1574 73.8735 23.1574H69.422L69.4528 19.9843H74.998L76.0608 21.232C77.4265 21.2114 78.5253 21.4527 79.3571 21.9559C80.1991 22.4488 80.8101 23.0906 81.19 23.8813C81.5803 24.672 81.7754 25.5192 81.7754 26.4228C81.7754 27.8605 81.4622 29.0722 80.8358 30.058C80.2094 31.0335 79.2903 31.7677 78.0786 32.2606C76.8772 32.7535 75.4087 33 73.6733 33ZM92.6975 29.2416V21.8173C92.6975 21.2833 92.6102 20.8264 92.4356 20.4464C92.261 20.0562 91.9889 19.7533 91.6192 19.5376C91.2598 19.322 90.7926 19.2142 90.2175 19.2142C89.7246 19.2142 89.2985 19.3014 88.9391 19.476C88.5797 19.6403 88.3024 19.8816 88.1073 20.2C87.9122 20.508 87.8146 20.8726 87.8146 21.2936H83.3785C83.3785 20.585 83.5428 19.9124 83.8714 19.2758C84.2 18.6391 84.6775 18.0795 85.3039 17.5968C85.9303 17.1039 86.6748 16.7188 87.5374 16.4416C88.4102 16.1643 89.3858 16.0257 90.464 16.0257C91.7579 16.0257 92.908 16.2413 93.9143 16.6726C94.9206 17.1039 95.7113 17.7509 96.2864 18.6134C96.8717 19.476 97.1644 20.5542 97.1644 21.8481V28.9798C97.1644 29.8937 97.2209 30.6433 97.3338 31.2286C97.4468 31.8037 97.6111 32.3069 97.8267 32.7381V33H93.3444C93.1287 32.5482 92.9644 31.9834 92.8515 31.3057C92.7488 30.6176 92.6975 29.9296 92.6975 29.2416ZM93.2828 22.8493L93.3136 25.36H90.8337C90.2483 25.36 89.74 25.4268 89.3088 25.5603C88.8775 25.6938 88.5232 25.8837 88.2459 26.1302C87.9687 26.3664 87.7633 26.6436 87.6298 26.962C87.5066 27.2803 87.445 27.6294 87.445 28.0094C87.445 28.3893 87.5323 28.7333 87.7068 29.0414C87.8814 29.3392 88.133 29.5754 88.4616 29.7499C88.7902 29.9142 89.1753 29.9964 89.6168 29.9964C90.2843 29.9964 90.8645 29.8629 91.3574 29.5959C91.8503 29.3289 92.2302 29.0003 92.4972 28.6101C92.7745 28.2199 92.9182 27.8502 92.9285 27.5011L94.0991 29.3803C93.9348 29.8013 93.7089 30.2377 93.4214 30.6895C93.1441 31.1413 92.7899 31.5675 92.3586 31.968C91.9273 32.3582 91.4087 32.6817 90.8029 32.9384C90.197 33.1848 89.4782 33.3081 88.6464 33.3081C87.5887 33.3081 86.6286 33.0976 85.766 32.6765C84.9137 32.2452 84.236 31.6548 83.7328 30.9052C83.2399 30.1453 82.9934 29.2827 82.9934 28.3174C82.9934 27.4446 83.1577 26.6693 83.4863 25.9916C83.8149 25.3138 84.2976 24.7439 84.9342 24.2818C85.5812 23.8094 86.3873 23.4552 87.3525 23.219C88.3178 22.9725 89.4371 22.8493 90.7104 22.8493H93.2828ZM112.584 29.5343V33H99.9228V29.5343H112.584ZM112.338 18.8907L101.71 33H98.7367V30.3661L109.319 16.3338H112.338V18.8907ZM110.767 16.3338V19.8149H98.9832V16.3338H110.767ZM123.106 29.2416V21.8173C123.106 21.2833 123.019 20.8264 122.844 20.4464C122.669 20.0562 122.397 19.7533 122.028 19.5376C121.668 19.322 121.201 19.2142 120.626 19.2142C120.133 19.2142 119.707 19.3014 119.347 19.476C118.988 19.6403 118.711 19.8816 118.516 20.2C118.321 20.508 118.223 20.8726 118.223 21.2936H113.787C113.787 20.585 113.951 19.9124 114.28 19.2758C114.608 18.6391 115.086 18.0795 115.712 17.5968C116.339 17.1039 117.083 16.7188 117.946 16.4416C118.819 16.1643 119.794 16.0257 120.872 16.0257C122.166 16.0257 123.316 16.2413 124.323 16.6726C125.329 17.1039 126.12 17.7509 126.695 18.6134C127.28 19.476 127.573 20.5542 127.573 21.8481V28.9798C127.573 29.8937 127.629 30.6433 127.742 31.2286C127.855 31.8037 128.019 32.3069 128.235 32.7381V33H123.753C123.537 32.5482 123.373 31.9834 123.26 31.3057C123.157 30.6176 123.106 29.9296 123.106 29.2416ZM123.691 22.8493L123.722 25.36H121.242C120.657 25.36 120.148 25.4268 119.717 25.5603C119.286 25.6938 118.932 25.8837 118.654 26.1302C118.377 26.3664 118.172 26.6436 118.038 26.962C117.915 27.2803 117.853 27.6294 117.853 28.0094C117.853 28.3893 117.941 28.7333 118.115 29.0414C118.29 29.3392 118.541 29.5754 118.87 29.7499C119.199 29.9142 119.584 29.9964 120.025 29.9964C120.693 29.9964 121.273 29.8629 121.766 29.5959C122.259 29.3289 122.639 29.0003 122.906 28.6101C123.183 28.2199 123.327 27.8502 123.337 27.5011L124.507 29.3803C124.343 29.8013 124.117 30.2377 123.83 30.6895C123.552 31.1413 123.198 31.5675 122.767 31.968C122.336 32.3582 121.817 32.6817 121.211 32.9384C120.605 33.1848 119.887 33.3081 119.055 33.3081C117.997 33.3081 117.037 33.0976 116.174 32.6765C115.322 32.2452 114.644 31.6548 114.141 30.9052C113.648 30.1453 113.402 29.2827 113.402 28.3174C113.402 27.4446 113.566 26.6693 113.895 25.9916C114.223 25.3138 114.706 24.7439 115.343 24.2818C115.99 23.8094 116.796 23.4552 117.761 23.219C118.726 22.9725 119.845 22.8493 121.119 22.8493H123.691ZM134.167 19.9689V33H129.73V16.3338H133.905L134.167 19.9689ZM139.188 16.2259L139.111 20.3386C138.895 20.3078 138.633 20.2821 138.325 20.2616C138.028 20.2308 137.755 20.2154 137.509 20.2154C136.883 20.2154 136.338 20.2975 135.876 20.4618C135.424 20.6158 135.044 20.8469 134.736 21.155C134.439 21.463 134.213 21.8378 134.059 22.2794C133.915 22.7209 133.833 23.2241 133.812 23.7889L132.919 23.5116C132.919 22.4334 133.027 21.4425 133.242 20.5388C133.458 19.6249 133.771 18.8291 134.182 18.1513C134.603 17.4736 135.116 16.9499 135.722 16.5802C136.328 16.2105 137.021 16.0257 137.802 16.0257C138.048 16.0257 138.3 16.0462 138.556 16.0873C138.813 16.1181 139.024 16.1643 139.188 16.2259ZM137.803 30.859C137.803 30.2018 138.029 29.6524 138.481 29.2108C138.943 28.7693 139.554 28.5485 140.314 28.5485C141.074 28.5485 141.679 28.7693 142.131 29.2108C142.593 29.6524 142.824 30.2018 142.824 30.859C142.824 31.5162 142.593 32.0655 142.131 32.5071C141.679 32.9487 141.074 33.1694 140.314 33.1694C139.554 33.1694 138.943 32.9487 138.481 32.5071C138.029 32.0655 137.803 31.5162 137.803 30.859Z" fill="white"/>
</svg>
